<?xml version="1.0" encoding="UTF-8" standalone="no"?>
<svg
   xmlns:dc="http://purl.org/dc/elements/1.1/"
   xmlns:cc="http://creativecommons.org/ns#"
   xmlns:rdf="http://www.w3.org/1999/02/22-rdf-syntax-ns#"
   xmlns:svg="http://www.w3.org/2000/svg"
   xmlns="http://www.w3.org/2000/svg"
   xmlns:sodipodi="http://sodipodi.sourceforge.net/DTD/sodipodi-0.dtd"
   xmlns:inkscape="http://www.inkscape.org/namespaces/inkscape"
   sodipodi:docname="sprites.svg"
   inkscape:version="1.0 (4035a4f, 2020-05-01)"
   id="svg8"
   version="1.1"
   viewBox="0 0 1600 900"
   height="900mm"
   width="1600mm">
  <defs
     id="defs2">
    <clipPath
       id="clipPath863"
       clipPathUnits="userSpaceOnUse">
      <rect
         y="269.87656"
         x="185.49457"
         height="394.75974"
         width="407.29971"
         id="rect865"
         style="fill:none;stroke:#ff0000;stroke-width:13.3728;stroke-miterlimit:4;stroke-dasharray:none" />
    </clipPath>
    <clipPath
       id="clipPath1913"
       clipPathUnits="userSpaceOnUse">
      <rect
         y="308.50867"
         x="166.15831"
         height="277.80798"
         width="439.20831"
         id="rect1915"
         style="fill:none;stroke:#ff0000;stroke-width:12.8803;stroke-miterlimit:4;stroke-dasharray:none" />
    </clipPath>
    <clipPath
       id="clipPath1975"
       clipPathUnits="userSpaceOnUse">
      <rect
         y="459.21875"
         x="174.99728"
         height="183.6273"
         width="269.9241"
         id="rect1977"
         style="fill:none;stroke:#ff0000;stroke-width:11.9743;stroke-miterlimit:4;stroke-dasharray:none" />
    </clipPath>
  </defs>
  <sodipodi:namedview
     inkscape:window-maximized="0"
     inkscape:window-y="23"
     inkscape:window-x="1680"
     inkscape:window-height="1395"
     inkscape:window-width="2560"
     units="mm"
     showgrid="false"
     inkscape:document-rotation="0"
     inkscape:current-layer="layer1"
     inkscape:document-units="mm"
     inkscape:cy="1803.7783"
     inkscape:cx="3228.7579"
     inkscape:zoom="0.25"
     inkscape:pageshadow="2"
     inkscape:pageopacity="0.0"
     borderopacity="1.0"
     bordercolor="#666666"
     pagecolor="#ffffff"
     id="base" />
  <metadata
     id="metadata5">
    <rdf:RDF>
      <cc:Work
         rdf:about="">
        <dc:format>image/svg+xml</dc:format>
        <dc:type
           rdf:resource="http://purl.org/dc/dcmitype/StillImage" />
        <dc:title></dc:title>
      </cc:Work>
    </rdf:RDF>
  </metadata>
  <g
     style="display:inline"
     id="layer1"
     inkscape:groupmode="layer"
     inkscape:label="Layer 1">
    <path
       inkscape:export-ydpi="9.6000004"
       inkscape:export-xdpi="9.6000004"
       clip-path="url(#clipPath1975)"
       id="path1971"
       d="m 182.03333,638.53366 v -3.64997 l 5.97979,-9.42915 5.97979,-9.42915 4.26336,-1.35314 4.26337,-1.35314 v -3.63037 -3.63037 l -5.12158,-2.33355 -5.12158,-2.33354 0.0116,-2.60471 0.0116,-2.60471 4.67478,-15.36473 4.67478,-15.36474 9.29321,-0.60966 9.29321,-0.60967 4.45811,-9.17613 4.45811,-9.17614 v -16.33424 -16.33424 l 5.63374,-0.14275 5.63373,-0.14274 7.17021,-14.61556 7.17021,-14.61557 11.70163,-9.0689 11.70164,-9.0689 14.41841,-1.03163 14.4184,-1.03163 v 9.49411 9.49411 h 6.1459 6.14589 v -9.49411 -9.49411 l 14.05635,1.00573 14.05636,1.00573 9.29066,6.39214 9.29067,6.39214 6.27585,8.53384 6.27585,8.53384 3.66738,8.91945 3.66738,8.91945 5.63374,0.008 5.63373,0.008 v 16.33424 16.33424 l 4.45811,9.17614 4.45811,9.17613 9.2932,0.60967 9.29323,0.60966 4.67477,15.36474 4.67479,15.36473 0.0123,2.60471 0.0123,2.60471 -5.12157,2.33354 -5.12158,2.33355 v 3.63037 3.63037 l 4.26336,1.35314 4.26337,1.35314 5.97979,9.42915 5.97979,9.42915 v 3.64997 3.64997 H 313.14714 182.03476 v -3.64997 z m 85.53034,0.28158 -3.5851,-0.93688 -3.58511,0.93688 -3.5851,0.93689 h 7.17021 7.1702 z m 100.38291,0 -3.5851,-0.93688 -3.5851,0.93688 -3.58511,0.93689 h 7.17021 7.17021 z m -66.83135,-4.05491 2.81164,-3.41846 -7.10619,1.40824 -7.10619,1.40824 -2.01022,2.01022 -2.01022,2.01022 h 6.30478 6.30477 z m 39.58456,1.51479 -1.9462,-1.90366 -5.63373,-1.39137 -5.63374,-1.39137 v 1.92928 1.92928 l 1.36576,1.36575 1.36575,1.36576 h 6.21418 6.21418 z m -15.2623,-1.03591 v -0.89095 l -1.97035,-5.18242 -1.97035,-5.18242 1.97035,-1.21774 1.97035,-1.21775 v -1.92772 -1.92773 l -9.73099,4e-5 -9.731,4e-5 -0.35572,9.2188 -0.35572,9.2188 h 10.08672 10.08671 z m 24.58357,-16.52241 v -1.02432 h -1.02431 -1.02432 v 1.02432 1.02431 h 1.02432 1.02431 z m -4.78013,-4.01588 v -2.99157 l -6.11016,-2.13001 -6.11016,-2.13001 h -5.39337 -5.39336 l -0.44912,-5.4266 -0.44912,-5.42659 -2.38324,-2.87162 -2.38323,-2.87162 4.43416,-1.15956 4.43416,-1.15956 v -1.71687 -1.71686 l -6.95449,-1.30467 -6.95449,-1.30467 -4.82514,2.65869 -4.82513,2.6587 4.09726,0.83876 4.09726,0.83877 1.4013,2.22598 1.4013,2.22599 -1.36993,2.14644 -1.36993,2.14645 -0.2083,1.02431 -0.20831,1.02432 -1.57872,3.5851 -1.57872,3.58511 h -5.43392 -5.43392 l -2.75632,4.41357 -2.75632,4.41357 13.01884,-1.05493 13.01884,-1.05492 12.29179,1.46174 12.29178,1.46174 2.21935,0.30119 2.21936,0.30119 z m 23.21781,1.01501 v -1.97655 l -4.25734,-2.27847 -4.25734,-2.27846 -3.25544,1.24923 -3.25543,1.24923 1.87904,1.78262 1.87904,1.78262 4.09726,0.98552 4.09726,0.98552 1.53648,0.23765 1.53647,0.23764 z m 23.29832,-3.65718 -1.36332,-5.63374 -1.69797,-4.60942 -1.69794,-4.60942 h -1.92862 -1.92861 l -0.81607,2.44821 -0.81607,2.44821 3.76611,7.79494 3.76611,7.79495 h 2.03984 2.03984 z M 233.2491,603.54109 v -2.23766 l -1.53647,0.0456 -1.53647,0.0455 -5.12158,4.00616 -5.12158,4.00615 2.56079,0.0455 2.56079,0.0456 v 3.34922 3.34922 l 4.09726,-5.20882 4.09726,-5.20883 z m 38.92399,7.61635 v -1.95991 l -3.41534,0.66237 -3.41534,0.66237 -0.79891,2.39959 -0.79891,2.39959 4.21425,-1.10205 4.21425,-1.10205 z m 17.7548,-0.97661 -1.36575,-1.36575 -1.36576,1.36575 -1.36575,1.36576 h 2.73151 2.7315 z m -14.3934,-4.78013 h 3.0263 l -1.26612,-2.04864 -1.26613,-2.04863 h -4.87977 -4.87977 l -1.08952,1.76289 -1.08952,1.76289 1.37376,1.37377 1.37377,1.37377 2.83535,-1.08803 2.83535,-1.08802 z m 88.82699,0.13805 v -1.91058 l -3.80866,-1.20882 -3.80865,-1.20882 -3.36156,1.28995 -3.36155,1.28995 v 1.82945 1.82945 h 7.17021 7.17021 z m -90.13976,-29.8432 v -1.02432 h -1.02432 -1.02431 v 1.02432 1.02431 h 1.02431 1.02432 z m 79.89661,0 v -1.02432 h -1.02432 -1.02432 v 1.02432 1.02431 h 1.02432 1.02432 z m -106.59396,-9.731 0.0651,-1.53647 h -2.90223 -2.90222 l -0.89326,2.56079 -0.89326,2.56079 0.96482,2.62099 0.96483,2.621 2.7655,-3.64531 2.76551,-3.64531 0.0651,-1.53648 z m 126.16205,-3.02302 -1.26474,-3.29585 -2.14966,2.14967 -2.14967,2.14967 2.72898,4.40773 2.72899,4.40772 0.68542,-3.26155 0.68541,-3.26155 z m -99.4647,6.60813 v -1.02432 h -1.02432 -1.02431 v 1.02432 1.02431 h 1.02431 1.02432 z m 15.41894,-2.6773 -1.14681,-1.14682 -2.52665,2.54559 -2.52664,2.54559 3.67346,-1.39878 3.67345,-1.39877 z m 51.16156,1.65298 -1.26612,-2.04863 -2.43988,0.0314 -2.43989,0.0314 3.07295,1.98589 3.07294,1.98589 0.63307,0.0314 0.63306,0.0314 z m 13.31611,1.02432 v -1.02432 h -1.02432 -1.02432 v 1.02432 1.02431 h 1.02432 1.02432 z m -53.26441,-6.36508 v -0.80513 h -3.07294 -3.07295 v 1.98433 1.98434 l 3.07295,-1.1792 3.07294,-1.1792 z m 30.72947,1.2435 v -2.04863 l -3.58511,0.0314 -3.5851,0.0314 3.07294,1.98589 3.07295,1.98589 0.51216,0.0314 0.51216,0.0314 z m -55.31304,-1.02432 v -1.02431 h -1.02431 -1.02432 v 1.02431 1.02432 h 1.02432 1.02431 z m 75.79934,0 v -1.02431 h -1.02431 -1.02432 v 1.02431 1.02432 h 1.02432 1.02431 z m -69.79119,-17.41336 0.007,-3.07294 -3.0078,3.97665 -3.00779,3.97666 0.0726,4.21787 0.0726,4.21786 2.92776,-5.12157 2.92776,-5.12158 z m 26.76995,11.26747 v -1.02431 h -1.02432 -1.02432 v 1.02431 1.02432 h 1.02432 1.02432 z m 10.24315,0 v -1.02431 h -1.02432 -1.02431 v 1.02431 1.02432 h 1.02431 1.02432 z m 28.64439,-9.28693 -2.34415,-4.38008 -1.13408,1.13408 -1.13409,1.13409 2.79749,6.72373 2.79748,6.72374 0.68075,-3.47774 0.68075,-3.47774 z m -38.14671,-3.00485 1.1792,-3.07295 h -1.98433 -1.98434 v 3.07295 3.07294 h 0.80514 0.80513 z m 9.50232,0 v -3.07295 h -1.98433 -1.98434 l 1.1792,3.07295 1.1792,3.07294 h 0.80514 0.80513 z m -51.72793,-4.48512 -3.5851,-0.93689 -3.58511,0.93689 -3.5851,0.93688 h 7.17021 7.1702 z m 100.38291,0 -3.5851,-0.93689 -3.5851,0.93689 -3.58511,0.93688 h 7.17021 7.17021 z m -66.83135,-4.05492 2.81164,-3.41845 -7.10619,1.40823 -7.10619,1.40824 -2.01022,2.01022 -2.01022,2.01022 h 6.30478 6.30477 z m 39.58456,1.5148 -1.9462,-1.90367 -5.63373,-1.39137 -5.63374,-1.39137 v 1.92928 1.92928 l 1.36576,1.36576 1.36575,1.36575 h 6.21418 6.21418 z m -15.2623,-1.03592 v -0.89095 l -1.97035,-5.18242 -1.97035,-5.18242 1.97035,-1.21774 1.97035,-1.21774 v -1.92773 -1.92773 l -9.73099,4e-5 -9.731,4e-5 -0.35572,9.2188 -0.35572,9.2188 h 10.08672 10.08671 z m 24.58357,-16.52241 v -1.02432 h -1.02431 -1.02432 v 1.02432 1.02431 h 1.02432 1.02431 z m -5.31884,-3.06536 -2.04104,-2.04104 -12.19695,-2.27477 -12.19695,-2.27477 -12.01657,1.07008 -12.01657,1.07009 -2.32384,2.48446 -2.32385,2.48447 13.3161,-1.00167 13.3161,-1.00167 12.29179,1.46174 12.29178,1.46174 2.97052,0.30119 2.97051,0.30119 z m -41.39947,-42.102 0.84846,-7.26768 -5.23375,0.60963 -5.23375,0.60964 -0.64195,6.65805 -0.64196,6.65805 h 5.02724 5.02725 z m 29.94691,0.60964 -0.64196,-6.65805 -5.23375,-0.60964 -5.23375,-0.60963 0.84847,7.26768 0.84846,7.26769 h 5.02724 5.02724 z m 143.78652,162.70886 v -3.64997 l 5.97979,-9.42915 5.97979,-9.42915 4.26336,-1.35314 4.26337,-1.35314 v -3.63037 -3.63037 l -5.12158,-2.33355 -5.12158,-2.33354 0.0123,-2.60471 0.0123,-2.60471 4.67479,-15.36473 4.67477,-15.36474 9.29322,-0.60966 9.29321,-0.60967 4.45811,-9.17613 4.45667,-9.17614 v -16.33424 -16.33424 l 5.63373,-0.14275 5.63374,-0.14275 7.17021,-14.61556 7.17021,-14.61556 11.70163,-9.0689 11.70164,-9.0689 14.41841,-1.03163 14.4184,-1.03163 v 9.49411 9.49411 h 6.1459 6.14589 v -9.49411 -9.49411 l 14.05635,1.00573 14.05635,1.00573 9.29067,6.39214 9.29066,6.39214 6.27586,8.53384 6.27586,8.53384 3.66738,8.91945 3.66737,8.91945 5.63374,0.008 5.63373,0.008 v 16.33424 16.33424 l 4.45811,9.17614 4.45811,9.17613 9.2932,0.60967 9.29323,0.60966 4.67477,15.36474 4.67479,15.36473 0.0123,2.60471 0.0123,2.60471 -5.12157,2.33354 -5.12158,2.33355 v 3.63037 3.63037 l 4.26336,1.35314 4.26337,1.35314 5.97979,9.42915 5.97979,9.42915 v 3.64997 3.64997 H 608.14999 477.03761 v -3.64997 z m 85.53034,0.28158 -3.58511,-0.93688 -3.5851,0.93688 -3.5851,0.93689 h 7.1702 7.17021 z m 100.38291,0 -3.5851,-0.93688 -3.58511,0.93688 -3.5851,0.93689 h 7.17021 7.17021 z m -66.83134,-4.05491 2.81163,-3.41846 -7.10619,1.40824 -7.10619,1.40824 -2.01022,2.01022 -2.01022,2.01022 h 6.30479 6.30476 z m 39.58455,1.51479 -1.9462,-1.90366 -5.63373,-1.39137 -5.63374,-1.39137 v 1.92928 1.92928 l 1.36576,1.36575 1.36574,1.36576 h 6.2142 6.21417 z m -15.2623,-1.03591 v -0.89095 l -1.97035,-5.18242 -1.97035,-5.18242 1.97035,-1.21774 1.97035,-1.21775 v -1.92772 -1.92773 l -9.731,4e-5 -9.73099,4e-5 -0.35573,9.2188 -0.3557,9.2188 h 10.0867 10.08672 z m 29.85626,-18.03927 1.29401,-1.29402 -6.45154,0.18344 -6.45157,0.18343 -2.3631,-2.3631 -2.3631,-2.3631 h 1.88989 1.88986 l -4.55308,-3.18911 -4.55311,-3.18912 v -4.11717 -4.11717 l -5.63373,0.64824 -5.63374,0.64823 v 4.09726 4.09726 l -4.09726,0.29439 -4.09726,0.29439 -8.64239,0.21777 -8.64238,0.21777 1.17919,3.07294 1.17922,3.07295 -5.85292,0.0314 -5.85292,0.0314 -3.07295,2.09326 -3.07294,2.09327 8.19452,-1.56869 8.19452,-1.56869 19.462,0.3438 19.46199,0.34379 6.14589,1.86389 6.1459,1.8639 2.5015,-0.31427 2.50148,-0.31427 1.29402,-1.29402 z m 10.93788,-8.36551 -4.10216,-4.40315 -1.92557,3.0455 -1.92557,3.04549 -0.0313,1.43468 -0.0313,1.43468 3.56343,1.99419 3.56345,1.99421 2.49566,-2.07122 2.49566,-2.07122 -4.10216,-4.40316 z m 25.52543,3.22432 -1.36332,-5.63374 -1.69797,-4.60942 -1.69794,-4.60942 h -1.92863 -1.9286 l -0.81607,2.44821 -0.81607,2.44821 3.7661,7.79494 3.76612,7.79495 h 2.03984 2.03984 z m -158.50796,-8.51766 v -2.23766 l -1.53647,0.0456 -1.53648,0.0456 -5.12157,4.00614 -5.12158,4.00615 2.56079,0.0456 2.56079,0.0455 v 3.34922 3.34922 l 4.09726,-5.20882 4.09726,-5.20883 z m 46.07957,6.70315 3.35096,-3.35097 -1.9741,-1.97411 -1.9741,-1.9741 -4.3035,1.36587 -4.30347,1.36587 v 3.95921 3.95921 h 2.92661 2.92661 z m 7.18483,0.27803 v -1.02431 h -1.02431 -1.02432 v 1.02431 1.02432 h 1.02432 1.02431 z m 5.46303,-0.34144 -1.36576,-1.36575 -1.36576,1.36575 -1.36575,1.36576 h 2.73151 2.7315 z m 66.23906,-9.68253 v -2.85377 l -3.12036,-1.19739 -3.12035,-1.19739 2.16811,4.05116 2.16813,4.05115 h 0.95222 0.95225 z m -72.7264,-3.29213 -1.26612,-2.04863 h -6.025 -6.02498 v 2.04863 2.04863 h 7.29112 7.29109 z m 49.03447,-7.97986 1.13345,-1.83396 -3.22873,-1.23898 -3.22872,-1.23898 h -4.78648 -4.78649 l -3.22872,1.23898 -3.22873,1.23898 1.13345,1.83396 1.13345,1.83397 h 8.97704 8.97703 z m -60.30194,-13.53076 v -1.02432 h -1.02432 -1.02431 v 1.02432 1.02431 h 1.02431 1.02432 z m 79.8966,0 v -1.02432 h -1.02431 -1.02432 v 1.02432 1.02431 h 1.02432 1.02431 z m -106.59395,-9.731 0.0652,-1.53647 h -2.90224 -2.90221 l -0.89326,2.56079 -0.89325,2.56079 0.9648,2.62099 0.96483,2.621 2.76551,-3.64531 2.7655,-3.64531 0.0652,-1.53648 z m 126.16205,-3.02302 -1.26475,-3.29585 -2.14965,2.14967 -2.14967,2.14967 2.72899,4.40773 2.72898,4.40772 0.68541,-3.26155 0.68543,-3.26155 z m -99.4647,6.60813 v -1.02432 h -1.02432 -1.02431 v 1.02432 1.02431 h 1.02431 1.02432 z m 15.41894,-2.6773 -1.14681,-1.14682 -2.52665,2.54559 -2.52664,2.54559 3.67346,-1.39878 3.67346,-1.39877 z m 51.16156,1.65298 -1.26611,-2.04863 -2.4399,0.0314 -2.43988,0.0314 3.07295,1.98589 3.07294,1.98589 0.63307,0.0314 0.63305,0.0314 z m 13.3161,1.02432 v -1.02432 h -1.02431 -1.02432 v 1.02432 1.02431 h 1.02432 1.02431 z m -53.2644,-6.36508 v -0.80513 h -3.07295 -3.07294 v 1.98433 1.98434 l 3.07294,-1.1792 3.07295,-1.1792 z m 30.72946,1.2435 v -2.04863 l -3.5851,0.0314 -3.5851,0.0314 3.07294,1.9859 3.07295,1.98589 0.51216,0.0314 0.51215,0.0314 z m -55.31303,-1.02432 v -1.02431 h -1.02432 -1.02431 v 1.02431 1.02432 h 1.02431 1.02432 z m 75.79934,0 v -1.02431 h -1.02431 -1.02432 v 1.02431 1.02432 h 1.02432 1.02431 z m -69.7912,-17.41336 0.008,-3.07294 -3.00778,3.97665 -3.0078,3.97666 0.0725,4.21787 0.0725,4.21786 2.92776,-5.12157 2.92776,-5.12158 0.008,-3.07295 z m 26.76995,11.26747 v -1.02431 h -1.02431 -1.02432 v 1.02431 1.02432 h 1.02432 1.02431 z m 10.24316,0 v -1.02431 h -1.02432 -1.02431 v 1.02431 1.02432 h 1.02431 1.02432 z m 28.64439,-9.28693 -2.34415,-4.38008 -1.13408,1.13408 -1.13408,1.13409 2.79749,6.72373 2.79746,6.72374 0.68076,-3.47774 0.68074,-3.47774 z m -38.1467,-3.00485 1.17919,-3.07295 h -1.98432 -1.98435 v 3.07295 3.07294 h 0.80514 0.80513 z m 9.50231,0 v -3.07295 h -1.98435 -1.98432 l 1.17919,3.07295 1.17921,3.07294 h 0.80514 0.80513 z m -51.72793,-4.48512 -3.58511,-0.93689 -3.5851,0.93689 -3.5851,0.93688 h 7.1702 7.17021 z m 100.38291,0 -3.5851,-0.93689 -3.58511,0.93689 -3.5851,0.93688 h 7.17021 7.17021 z m -66.83134,-4.05492 2.81163,-3.41845 -7.10619,1.40823 -7.10619,1.40824 -2.01022,2.01022 -2.01022,2.01022 h 6.30479 6.30476 z m 39.58455,1.5148 -1.9462,-1.90367 -5.63373,-1.39137 -5.63374,-1.39137 v 1.92928 1.92928 l 1.36576,1.36576 1.36574,1.36575 h 6.2142 6.21417 z m -15.2623,-1.03592 v -0.89095 l -1.97035,-5.18242 -1.97035,-5.18242 1.97035,-1.21774 1.97035,-1.21774 v -1.92773 -1.92773 l -9.731,4e-5 -9.73099,4e-5 -0.35573,9.2188 -0.3557,9.2188 h 10.0867 10.08672 z m 24.58357,-16.52241 v -1.02432 h -1.02431 -1.02432 v 1.02432 1.02431 h 1.02432 1.02431 z m -5.31884,-3.06536 -2.04105,-2.04104 -12.19693,-2.27477 -12.19696,-2.27477 -12.01657,1.07008 -12.01657,1.07009 -2.32385,2.48446 -2.32384,2.48447 13.3161,-1.00167 13.3161,-1.00167 12.29179,1.46174 12.29178,1.46174 2.97052,0.30119 2.97051,0.30119 z m -41.39947,-42.102 0.84846,-7.26768 -5.23376,0.60963 -5.23374,0.60964 -0.64196,6.65805 -0.64196,6.65805 h 5.02726 5.02724 z m 29.94691,0.60964 -0.64196,-6.65805 -5.23374,-0.60964 -5.23376,-0.60963 0.84846,7.26768 0.84846,7.26769 h 5.02724 5.02726 z m 143.78652,162.70886 v -3.64997 l 5.97979,-9.42915 5.97979,-9.42915 4.26336,-1.35314 4.26337,-1.35314 v -3.63037 -3.63037 l -5.12158,-2.33355 -5.12158,-2.33354 0.0123,-2.60471 0.0123,-2.60471 4.67479,-15.36473 4.67477,-15.36474 9.29322,-0.60966 9.29321,-0.60967 4.4581,-9.17613 4.45668,-9.17614 v -16.33424 -16.33424 l 5.63373,-0.14275 5.63374,-0.14275 7.17021,-14.61556 7.1702,-14.61556 11.70164,-9.0689 11.70164,-9.0689 14.4184,-1.03163 14.41841,-1.03163 v 9.49411 9.49411 h 6.14589 6.1459 v -9.49411 -9.49411 l 14.05635,1.00573 14.05635,1.00573 9.29067,6.39214 9.29066,6.39214 6.27586,8.53384 6.27586,8.53384 3.66737,8.91945 3.66738,8.91945 5.63374,0.008 5.63373,0.008 v 16.33424 16.33424 l 4.45811,9.17614 4.45811,9.17613 9.2932,0.60967 9.2932,0.60966 4.6748,15.36474 4.6748,15.36473 0.012,2.60471 0.012,2.60471 -5.1216,2.33354 -5.1216,2.33355 v 3.63037 3.63037 l 4.2634,1.35314 4.2634,1.35314 5.9798,9.42915 5.9797,9.42915 v 3.64997 3.64997 H 903.15284 772.04046 v -3.64997 z m 85.53034,0.28158 -3.58511,-0.93688 -3.5851,0.93688 -3.58511,0.93689 h 7.17021 7.17021 z m 100.38291,0 -3.5851,-0.93688 -3.58511,0.93688 -3.5851,0.93689 h 7.17021 7.1702 z m -66.83134,-4.05491 2.81163,-3.41846 -7.10619,1.40824 -7.10619,1.40824 -2.01022,2.01022 -2.01022,2.01022 h 6.30478 6.30477 z m 39.58455,1.51479 -1.9462,-1.90366 -5.63373,-1.39137 -5.63374,-1.39137 v 1.92928 1.92928 l 1.36576,1.36575 1.36574,1.36576 h 6.2142 6.21417 z m -15.2623,-1.03591 v -0.89095 l -1.97035,-5.18242 -1.97036,-5.18242 1.97036,-1.21774 1.97035,-1.21775 v -1.92772 -1.92773 l -9.731,4e-5 -9.73099,4e-5 -0.35573,9.2188 -0.3557,9.2188 h 10.0867 10.08672 z m -40.97262,-18.57105 v -1.02431 h -1.02431 -1.02432 v 1.02431 1.02432 h 1.02432 1.02431 z m 107.29219,-4.60941 -1.36332,-5.63374 -1.69797,-4.60942 -1.69795,-4.60942 h -1.92862 -1.9286 l -0.81607,2.44821 -0.81607,2.44821 3.7661,7.79494 3.76612,7.79495 h 2.03984 2.03984 z M 823.2548,603.54109 v -2.23766 l -1.53647,0.0456 -1.53648,0.0456 -5.12157,4.00614 -5.12158,4.00615 2.56079,0.0456 2.56079,0.0455 v 3.34922 3.34922 l 4.09726,-5.20882 4.09726,-5.20883 z m 103.45586,9.98772 -4.09726,-1.69424 2.04863,-0.36107 2.04863,-0.36107 5.64461,0.37262 5.64462,0.37262 -0.71715,-4.76496 -0.71716,-4.76496 -4.41531,-0.65464 -4.41529,-0.65464 v 3.21543 3.21543 h -23.64907 -23.64905 l 0.60195,-3.58511 0.60197,-3.5851 h -4.8876 -4.88759 l -0.72079,6.58403 -0.72079,6.58402 3.04759,-1.16947 3.0476,-1.16947 v 2.11144 2.11144 l 27.14436,-0.054 27.14436,-0.054 -4.09726,-1.69425 z m -48.14283,-0.95791 v -1.02431 h 1.02432 1.02431 v 1.02431 1.02432 h -1.02431 -1.02432 z m 14.34042,-2.04863 v -1.02431 h 1.02432 1.02431 v 1.02431 1.02432 h -1.02431 -1.02432 z m 18.43768,0 v -1.02431 h 1.02431 1.02432 v 1.02431 1.02432 h -1.02432 -1.02431 z m 21.98011,-12.50518 -1.23772,-1.23772 -2.68883,1.07598 -2.68883,1.07598 3.92655,0.16174 3.92653,0.16173 z m 3.19676,-5.93249 -0.43101,-2.04864 -4.38677,-0.68194 -4.3868,-0.68195 -4.99698,1.25416 -4.997,1.25417 1.09547,1.77248 1.09546,1.77249 8.71932,-0.29607 8.71932,-0.29607 z m -47.71181,-1.02432 -3.07295,-1.98589 -6.53714,-0.0314 -6.53716,-0.0314 -1.26611,2.04863 -1.26612,2.04863 10.8762,-0.0314 10.87622,-0.0314 z m -24.58357,-15.36473 v -1.02432 h -1.02432 -1.02431 v 1.02432 1.02431 h 1.02431 1.02432 z m 79.8966,0 v -1.02432 h -1.02431 -1.02432 v 1.02432 1.02431 h 1.02432 1.02431 z m -106.59395,-9.731 0.0652,-1.53647 h -2.90224 -2.90221 l -0.89327,2.56079 -0.89324,2.56079 0.9648,2.62099 0.96483,2.621 2.7655,-3.64531 2.76551,-3.64531 0.0652,-1.53648 z m 126.16204,-3.02302 -1.26474,-3.29585 -2.14965,2.14967 -2.14967,2.14967 2.72898,4.40773 2.72899,4.40772 0.68541,-3.26155 0.68543,-3.26155 z m -99.46469,6.60813 v -1.02432 h -1.02432 -1.02431 v 1.02432 1.02431 h 1.02431 1.02432 z m 15.41894,-2.6773 -1.14681,-1.14682 -2.52666,2.54559 -2.52663,2.54559 3.67346,-1.39878 3.67346,-1.39877 z m 51.16156,1.65298 -1.26611,-2.04863 -2.4399,0.0314 -2.43988,0.0314 3.07295,1.98589 3.07294,1.98589 0.63307,0.0314 0.63305,0.0314 z m 13.3161,1.02432 v -1.02432 h -1.02431 -1.02432 v 1.02432 1.02431 h 1.02432 1.02431 z m -53.2644,-6.36508 v -0.80513 h -3.07295 -3.07294 v 1.98433 1.98434 l 3.07294,-1.1792 3.07295,-1.1792 z m 30.72946,1.2435 v -2.04863 l -3.5851,0.0314 -3.58511,0.0314 3.07295,1.9859 3.07295,1.98589 0.51215,0.0314 0.51216,0.0314 z m -55.31303,-1.02432 v -1.02431 h -1.02432 -1.02431 v 1.02431 1.02432 h 1.02431 1.02432 z m 75.79934,0 v -1.02431 h -1.02431 -1.02432 v 1.02431 1.02432 h 1.02432 1.02431 z m -69.7912,-17.41336 0.008,-3.07294 -3.00778,3.97665 -3.0078,3.97666 0.0725,4.21787 0.0725,4.21786 2.92776,-5.12157 2.92776,-5.12158 0.008,-3.07295 z m 26.76995,11.26747 v -1.02431 h -1.02431 -1.02432 v 1.02431 1.02432 h 1.02432 1.02431 z m 10.24316,0 v -1.02431 h -1.02432 -1.02431 v 1.02431 1.02432 h 1.02431 1.02432 z m 28.64438,-9.28693 -2.34414,-4.38008 -1.13408,1.13408 -1.13408,1.13409 2.79748,6.72373 2.79747,6.72374 0.68076,-3.47774 0.68074,-3.47774 z m -38.14669,-3.00485 1.17919,-3.07295 h -1.98432 -1.98435 v 3.07295 3.07294 h 0.80513 0.80514 z m 9.50231,0 v -3.07295 h -1.98435 -1.98432 l 1.17919,3.07295 1.17921,3.07294 h 0.80513 0.80514 z m -51.72793,-4.48512 -3.58511,-0.93689 -3.5851,0.93689 -3.58511,0.93688 h 7.17021 7.17021 z m 100.38291,0 -3.5851,-0.93689 -3.58511,0.93689 -3.5851,0.93688 h 7.17021 7.1702 z m -66.83134,-4.05492 2.81163,-3.41845 -7.10619,1.40823 -7.10619,1.40824 -2.01022,2.01022 -2.01022,2.01022 h 6.30478 6.30477 z m 39.58455,1.5148 -1.9462,-1.90367 -5.63373,-1.39137 -5.63374,-1.39137 v 1.92928 1.92928 l 1.36576,1.36576 1.36574,1.36575 h 6.2142 6.21417 z m -15.2623,-1.03592 v -0.89095 l -1.97035,-5.18242 -1.97036,-5.18242 1.97036,-1.21774 1.97035,-1.21774 v -1.92773 -1.92773 l -9.731,4e-5 -9.73099,4e-5 -0.35573,9.2188 -0.3557,9.2188 h 10.0867 10.08672 z m 24.58357,-16.52241 v -1.02432 h -1.02432 -1.02431 v 1.02432 1.02431 h 1.02431 1.02432 z m -5.31884,-3.06536 -2.04105,-2.04104 -12.19693,-2.27477 -12.19696,-2.27477 -12.01657,1.07008 -12.01657,1.07009 -2.32385,2.48446 -2.32384,2.48447 13.3161,-1.00167 13.3161,-1.00167 12.29179,1.46174 12.29178,1.46174 2.97052,0.30119 2.97051,0.30119 z m -41.39947,-42.102 0.84846,-7.26768 -5.23376,0.60963 -5.23374,0.60964 -0.64196,6.65805 -0.64196,6.65805 h 5.02726 5.02724 z m 29.94691,0.60964 -0.64196,-6.65805 -5.23374,-0.60964 -5.23376,-0.60963 0.84846,7.26768 0.84846,7.26769 h 5.02724 5.02726 z m 143.78654,162.70886 v -3.64997 l 5.9798,-9.42915 5.9798,-9.42915 4.2633,-1.35314 4.2634,-1.35314 v -3.63037 -3.63037 l -5.1216,-2.33355 -5.1215,-2.33354 0.012,-2.60471 0.012,-2.60471 4.6748,-15.36473 4.6748,-15.36474 9.2932,-0.60966 9.2932,-0.60967 4.4581,-9.17613 4.4567,-9.17614 v -16.33424 -16.33424 l 5.6338,-0.14275 5.6337,-0.14275 7.1702,-14.61556 7.1702,-14.61556 11.7016,-9.0689 11.7017,-9.0689 14.4184,-1.03163 14.4184,-1.03163 v 9.49411 9.49411 h 6.1459 6.1459 v -9.49411 -9.49411 l 14.0563,1.00573 14.0564,1.00573 9.2906,6.39214 9.2907,6.39214 6.2759,8.53384 6.2758,8.53384 3.6674,8.91945 3.6674,8.91945 5.6337,0.008 5.6337,0.008 v 16.33424 16.33424 l 4.4582,9.17614 4.4581,9.17613 9.2932,0.60967 9.2932,0.60966 4.6748,15.36474 4.6748,15.36473 0.012,2.60471 0.012,2.60471 -5.1215,2.33354 -5.1216,2.33355 v 3.63037 3.63037 l 4.2633,1.35314 4.2634,1.35314 5.9798,9.42915 5.9798,9.42915 v 3.64997 3.64997 h -131.1114 -131.1124 v -3.64997 z m 85.5303,0.28158 -3.5851,-0.93688 -3.5851,0.93688 -3.5851,0.93689 h 7.1702 7.1702 z m 100.383,0 -3.5851,-0.93688 -3.5851,0.93688 -3.5852,0.93689 h 7.1703 7.1702 z m -66.8314,-4.05491 2.8116,-3.41846 -7.1061,1.40824 -7.1062,1.40824 -2.0103,2.01022 -2.0102,2.01022 h 6.3048 6.3048 z m 39.5846,1.51479 -1.9462,-1.90366 -5.6338,-1.39137 -5.6337,-1.39137 v 1.92928 1.92928 l 1.3658,1.36575 1.3657,1.36576 h 6.2142 6.2142 z m -15.2623,-1.03591 v -0.89095 l -1.9704,-5.18242 -1.9703,-5.18242 1.9703,-1.21774 1.9704,-1.21775 v -1.92772 -1.92773 l -9.731,4e-5 -9.731,4e-5 -0.3557,9.2188 -0.3558,9.2188 h 10.0867 10.0868 z m 24.5835,-16.52241 v -1.02432 h -1.0243 -1.0243 v 1.02432 1.02431 h 1.0243 1.0243 z m -79.8966,-7.30659 v -2.04085 l -3.2318,-1.24015 -3.2318,-1.24016 -3.4262,3.42717 -3.4263,3.42717 2.9626,1.8316 2.9626,1.8316 3.6954,-1.97776 3.6955,-1.97777 z m 73.7507,4.23364 -3.0729,-1.98589 -5.5128,-0.0314 -5.5129,-0.0314 -1.2661,-2.04863 -1.2661,-2.04863 2.6817,-0.22112 2.6817,-0.22112 -13.3161,-2.33967 -13.3161,-2.33967 -0.024,-3.50645 -0.024,-3.50645 -2.3993,-2.39931 -2.3993,-2.3993 -3.259,1.2506 -3.259,1.25059 0.9419,5.19445 0.942,5.19445 -7.0395,2.94128 -7.0395,2.94128 v 2.4564 2.45641 l 17.9256,-1.04123 17.9255,-1.04122 11.2675,1.47386 11.2674,1.47385 3.073,0.25708 3.0729,0.25707 z m 47.8819,-3.5851 -1.3633,-5.63374 -1.698,-4.60942 -1.6979,-4.60942 h -1.9286 -1.9286 l -0.8161,2.44821 -0.8161,2.44821 3.7661,7.79494 3.7662,7.79495 h 2.0398 2.0398 z m -158.5079,-8.51766 v -2.23766 l -1.5365,0.0456 -1.5365,0.0456 -5.1215,4.00614 -5.1216,4.00615 2.5608,0.0456 2.5608,0.0455 v 3.34922 3.34922 l 4.0972,-5.20882 4.0973,-5.20883 z m 124.9665,8.1264 v -1.92772 l -2.0821,-1.28678 -2.082,-1.28678 1.1786,-1.90707 1.1786,-1.90708 h -3.1938 -3.1939 v 3.75583 3.75582 l 1.3658,1.36575 1.3657,1.36576 h 2.7316 2.7315 z m -17.072,-1.48666 -1.3657,-1.36575 -1.3658,1.36575 -1.3657,1.36576 h 2.7315 2.7315 z m -66.9219,-10.92603 2.1928,-4.09726 h -1.711 -1.711 l -2.4583,2.45836 -2.4584,2.45836 v 1.6389 1.6389 h 1.9766 1.9765 z m 80.7416,0.80965 3.2287,-1.23898 -1.1334,-1.83396 -1.1335,-1.83397 h -4.8331 -4.8331 l -3.7527,1.44216 -3.7526,1.44215 5.1215,1.42658 5.1216,1.42659 1.3689,0.20421 1.369,0.2042 z m -42.158,-10.79908 2.7325,-1.73216 -3.4122,-1.30941 -3.4123,-1.30941 h -5.8108 -5.8108 l -3.2287,1.23898 -3.2287,1.23898 1.1334,1.83396 1.1335,1.83397 8.5858,-0.0314 8.5857,-0.0314 2.7326,-1.73216 z m -38.5836,-13.56982 v -1.02432 h -1.0243 -1.0243 v 1.02432 1.02431 h 1.0243 1.0243 z m 79.8966,0 v -1.02432 h -1.0243 -1.0243 v 1.02432 1.02431 h 1.0243 1.0243 z m -106.594,-9.731 0.065,-1.53647 h -2.9022 -2.9023 l -0.8932,2.56079 -0.8933,2.56079 0.9648,2.62099 0.9649,2.621 2.7655,-3.64531 2.7655,-3.64531 0.065,-1.53648 z m 126.1621,-3.02302 -1.2647,-3.29585 -2.1497,2.14967 -2.1497,2.14967 2.729,4.40773 2.729,4.40772 0.6854,-3.26155 0.6854,-3.26155 z m -99.4647,6.60813 v -1.02432 h -1.0243 -1.0243 v 1.02432 1.02431 h 1.0243 1.0243 z m 15.4189,-2.6773 -1.1468,-1.14682 -2.5266,2.54559 -2.5267,2.54559 3.6735,-1.39878 3.6735,-1.39877 z m 51.1616,1.65298 -1.2661,-2.04863 -2.4399,0.0314 -2.4399,0.0314 3.073,1.98589 3.0729,1.98589 0.6331,0.0314 0.633,0.0314 z m 13.3161,1.02432 v -1.02432 h -1.0243 -1.0243 v 1.02432 1.02431 h 1.0243 1.0243 z m -53.2644,-6.36508 v -0.80513 h -3.0729 -3.073 v 1.98433 1.98434 l 3.073,-1.1792 3.0729,-1.1792 z m 30.7295,1.2435 v -2.04863 l -3.5851,0.0314 -3.5851,0.0314 3.0729,1.9859 3.0729,1.98589 0.5122,0.0314 0.5122,0.0314 z m -55.3131,-1.02432 v -1.02431 h -1.0243 -1.0243 v 1.02431 1.02432 h 1.0243 1.0243 z m 75.7994,0 v -1.02431 h -1.0243 -1.0244 v 1.02431 1.02432 h 1.0244 1.0243 z m -69.7912,-17.41336 0.01,-3.07294 -3.0078,3.97665 -3.0078,3.97666 0.072,4.21787 0.072,4.21786 2.9278,-5.12157 2.9277,-5.12158 0.01,-3.07295 z m 26.7699,11.26747 v -1.02431 h -1.0243 -1.0243 v 1.02431 1.02432 h 1.0243 1.0243 z m 10.2432,0 v -1.02431 h -1.0243 -1.0244 v 1.02431 1.02432 h 1.0244 1.0243 z m 28.6444,-9.28693 -2.3442,-4.38008 -1.1341,1.13408 -1.134,1.13409 2.7974,6.72373 2.7975,6.72374 0.6808,-3.47774 0.6807,-3.47774 z m -38.1467,-3.00485 1.1792,-3.07295 h -1.9844 -1.9843 v 3.07295 3.07294 h 0.8051 0.8052 z m 9.5023,0 v -3.07295 h -1.9844 -1.9843 l 1.1792,3.07295 1.1792,3.07294 h 0.8051 0.8052 z m -51.728,-4.48512 -3.5851,-0.93689 -3.5851,0.93689 -3.5851,0.93688 h 7.1702 7.1702 z m 100.383,0 -3.5851,-0.93689 -3.5851,0.93689 -3.5852,0.93688 h 7.1703 7.1702 z m -66.8314,-4.05492 2.8116,-3.41845 -7.1061,1.40823 -7.1062,1.40824 -2.0103,2.01022 -2.0102,2.01022 h 6.3048 6.3048 z m 39.5846,1.5148 -1.9462,-1.90367 -5.6338,-1.39137 -5.6337,-1.39137 v 1.92928 1.92928 l 1.3658,1.36576 1.3657,1.36575 h 6.2142 6.2142 z m -15.2623,-1.03592 v -0.89095 l -1.9704,-5.18242 -1.9703,-5.18242 1.9703,-1.21774 1.9704,-1.21774 v -1.92773 -1.92773 l -9.731,4e-5 -9.731,4e-5 -0.3557,9.2188 -0.3558,9.2188 h 10.0867 10.0868 z m 24.5835,-16.52241 v -1.02432 h -1.0243 -1.0243 v 1.02432 1.02431 h 1.0243 1.0243 z m -5.3188,-3.06536 -2.0411,-2.04104 -12.1969,-2.27477 -12.1969,-2.27477 -12.0166,1.07008 -12.0166,1.07009 -2.3238,2.48446 -2.3239,2.48447 13.3161,-1.00167 13.3161,-1.00167 12.2918,1.46174 12.2918,1.46174 2.9705,0.30119 2.9705,0.30119 z m -41.3995,-42.102 0.8485,-7.26768 -5.2338,0.60963 -5.2337,0.60964 -0.642,6.65805 -0.6419,6.65805 h 5.0272 5.0273 z m 29.9469,0.60964 -0.6419,-6.65805 -5.2338,-0.60964 -5.2337,-0.60963 0.8484,7.26768 0.8485,7.26769 h 5.0272 5.0273 z"
       style="fill:#4bb900;stroke-width:2.04863;fill-opacity:1" />
  </g>
  <g
     sodipodi:insensitive="true"
     style="display:none"
     inkscape:label="alien1"
     id="layer2"
     inkscape:groupmode="layer">
    <path
       transform="translate(338.66666,-26.458334)"
       clip-path="url(#clipPath1913)"
       id="path869"
       d="m 310.66879,560.64004 -0.28079,-15.55603 -16.002,-0.27979 -16.002,-0.27981 v -31.9782 -31.9782 h -9.652 -9.652 v 30.89573 30.89574 l -6.858,1.1814 c -3.79448,0.65366 -13.21197,1.03527 -21.082,0.85427 l -14.224,-0.32714 v -47.752 -47.752 l 15.494,-0.28047 15.494,-0.28045 v -15.72155 -15.72153 h 16.22953 16.22955 l 0.28045,-15.494 0.28047,-15.494 14.478,-0.2819 14.478,-0.28189 v -14.19611 -14.1961 l -11.43,-0.006 c -6.2865,-0.003 -13.1445,-0.48181 -15.24,-1.06375 l -3.81,-1.05767 v -15.70023 -15.70025 l 17.526,0.10129 c 9.6393,0.0557 18.669,0.41833 20.066,0.80584 2.52805,0.70125 2.54239,0.77367 3.048,15.39273 l 0.508,14.68816 13.208,0.0373 c 7.2644,0.0205 14.4653,0.37215 16.002,0.78136 l 2.794,0.74402 v 14.71264 14.71265 h 42.13753 42.13755 l 0.28045,-15.494 0.28047,-15.494 15.748,-0.17673 15.748,-0.17673 0.28047,-15.31727 0.28045,-15.31727 h 16.29634 c 9.29053,0 17.14117,0.45215 18.26153,1.05174 1.81289,0.97023 1.96521,2.26959 1.96521,16.764 v 15.71228 h -14.732 -14.732 v 14.224 14.224 h 11.049 c 6.07695,0 12.47775,0.28575 14.224,0.635 l 3.175,0.635 v 15.0872 15.0872 l 16.002,0.2798 16.002,0.2798 0.28047,15.494 0.28045,15.494 h 15.21355 15.21353 v 47.08091 47.08093 l -2.5878,1.17907 c -1.59523,0.72684 -8.41493,1.17909 -17.78,1.17909 H 532.384 l -0.127,-30.48 c -0.0699,-16.764 -0.18415,-31.0515 -0.254,-31.75 -0.0939,-0.93839 -3.31046,-1.27 -12.319,-1.27 h -12.192 l -0.2692,30.93743 c -0.20185,23.19743 -0.58313,31.13684 -1.524,31.73445 -0.69014,0.43835 -7.5413,0.80401 -15.2248,0.81257 l -13.97,0.0155 v 14.61351 c 0,14.29589 -0.0497,14.62681 -2.286,15.22612 -1.2573,0.33694 -17.04231,0.61887 -35.0778,0.6265 l -32.7918,0.0139 0.2798,-16.002 0.2798,-16.002 30.988,-0.508 30.988,-0.508 0.2819,-14.478 0.28189,-14.478 H 394.7439 320.04 v 14.732 14.732 h 30.988 30.988 v 15.6393 c 0,13.89411 -0.1984,15.73395 -1.778,16.48752 -0.9779,0.46651 -16.96784,1.00054 -35.53321,1.18672 l -33.7552,0.33851 z m 31.49637,-127.57003 -0.28116,-14.986 -10.922,-0.28837 -10.922,-0.28837 v 15.27437 15.27437 h 11.20316 11.20317 z m 126.21084,-0.254 v -14.224 h -11.684 -11.684 v 14.224 14.224 h 11.684 11.684 z m 641.858,141.05913 -2.794,-1.02046 v -16.65416 -16.65418 l 16.51,-0.27916 16.51,-0.27917 0.278,-17.526 0.278,-17.526 h 16.74 16.74 v -15.748 -15.748 l -29.718,-0.0112 c -16.3449,-0.006 -31.4325,-0.29456 -33.528,-0.64093 l -3.81,-0.62975 v -33.28636 c 0,-29.41557 0.1868,-33.35809 1.6071,-33.90307 0.8839,-0.33919 8.4277,-0.6167 16.764,-0.6167 h 15.1569 l 0.127,-15.24 c 0.07,-8.382 0.1842,-15.76543 0.254,-16.40761 0.234,-2.1514 4.1023,-2.75312 18.161,-2.82498 l 13.97,-0.0714 v -16.1473 c 0,-14.38731 0.1938,-16.23706 1.778,-16.97086 0.9779,-0.45296 8.636,-1.07337 17.018,-1.3787 l 15.24,-0.55514 0.2788,-15.81022 0.2789,-15.81022 4.8097,-1.7296 c 4.2345,-1.52267 8.9414,-1.69754 39.3452,-1.46177 l 34.5354,0.26781 0.278,17.526 0.278,17.526 h 17.248 17.248 v 17.272 17.272 h 16.256 16.256 v 17.272 17.272 h 16.764 16.764 v 34.544 34.544 h -33.528 -33.528 v 15.65873 15.65874 l 16.002,0.34327 c 8.8011,0.18879 16.5735,0.71315 17.272,1.16523 0.9312,0.60266 1.27,5.27847 1.27,17.526 v 16.70403 l 12.954,0.0112 c 7.1247,0.006 14.6685,0.29457 16.764,0.64093 l 3.81,0.62975 v 17.13907 17.13906 h -17.222 c -9.4721,0 -19.5191,-0.49264 -22.3266,-1.09474 l -5.1046,-1.09475 -0.2794,-15.92325 L 1343.66,541.02 h -11.5025 -11.5026 l -0.1814,16.764 -0.1815,16.764 -17.272,0.29666 c -10.9892,0.18875 -18.8427,-0.13648 -21.59,-0.89405 l -4.318,-1.19069 V 557.14396 541.528 h -30.48 -30.48 v 16.764 16.764 h -16.9001 c -9.8684,0 -18.5344,-0.48965 -20.828,-1.17682 l -3.9279,-1.17682 V 556.60718 540.512 h -13.208 -13.208 v 17.272 17.272 l -17.526,-0.0802 c -9.6393,-0.0441 -18.7833,-0.53941 -20.32,-1.10066 z m 97.79,-51.65113 v -17.272 h -12.7 -12.7 v 17.272 17.272 h 12.7 12.7 z m 101.3706,0.254 -0.2786,-17.018 -11.43,-0.28727 -11.43,-0.28728 v 17.30528 17.30527 h 11.7086 11.7086 z m -33.2986,-34.798 v -16.256 h -29.464 -29.464 v 16.256 16.256 h 29.464 29.464 z m -68.072,-67.818 v -16.51 h -12.7 -12.7 v 16.08666 c 0,8.84768 0.1905,16.27718 0.4234,16.51 0.2327,0.23284 5.9477,0.42334 12.7,0.42334 h 12.2766 z m 101.3713,-0.21453 0.2793,-16.36039 -11.9633,0.28646 -11.9633,0.28646 -0.2823,15.19537 c -0.1554,8.35744 -0.1,15.67264 0.1243,16.256 0.2554,0.66605 4.7072,0.99289 11.9664,0.87856 l 11.5596,-0.18208 z M 669.544,559.0188 c 0,-9.56252 0.3886,-14.42499 1.2192,-15.25559 0.88639,-0.88639 8.50527,-1.2192 27.91051,-1.2192 h 26.69131 l 0.28349,-13.462 0.28349,-13.462 13.462,-0.28349 13.462,-0.28349 V 501.36652 487.68001 H 711.2 669.544 v -44.1681 -44.16811 l 14.478,-0.28189 14.478,-0.2819 0.2819,-14.478 0.28189,-14.478 h 41.12011 41.1201 v -15.24 -15.24 h 56.388 56.388 v 15.2286 15.22861 l 41.402,0.26539 41.402,0.2654 0.2819,14.478 0.28189,14.478 h 14.7149 14.71491 l -0.2648,43.942 -0.2648,43.942 -41.91,0.26527 -41.91,0.26528 v 13.67523 13.67524 l 13.462,0.28349 13.462,0.28349 0.28349,13.462 0.28349,13.462 h 26.69131 c 19.40524,0 27.02411,0.33281 27.91051,1.2192 0.8305,0.83047 1.2192,5.6896 1.2192,15.24 v 14.0208 h -28.7528 c -21.00862,0 -29.08117,-0.32837 -29.972,-1.2192 -0.8211,-0.8211 -1.2192,-5.46007 -1.2192,-14.20713 v -12.98793 l -26.67,-0.27087 -26.67,-0.27087 -0.508,-13.58733 -0.508,-13.58733 -12.7,9.3e-4 -12.7,9.2e-4 -0.28267,13.8404 -0.28267,13.84041 H 837.692 809.80934 l -0.28267,-13.78145 -0.28267,-13.78145 -12.92715,-0.18855 -12.92714,-0.18855 -0.28086,13.716 -0.28085,13.716 -27.14944,0.27054 -27.14943,0.27054 -0.28257,13.95346 -0.28256,13.95346 -29.21,0.26959 -29.21,0.26957 z M 863.6,500.88801 v -14.224 h -26.36101 -26.36103 l -0.30897,13.80406 c -0.16995,7.59223 -0.11849,13.99303 0.11435,14.224 0.23282,0.23097 12.23432,0.41994 26.67,0.41994 H 863.6 Z m -54.07333,-57.658 -0.28267,-13.97 h -26.416 -26.416 l -0.28267,13.97 -0.28267,13.97 h 26.98134 26.98134 z m 109.728,0 -0.28267,-13.97 h -25.908 -25.908 l -0.28267,13.97 -0.28267,13.97 h 26.47334 26.47334 z"
       style="fill:#ff0000;stroke-width:1.016" />
  </g>
  <g
     sodipodi:insensitive="true"
     style="display:none"
     inkscape:label="alien2"
     id="layer3"
     inkscape:groupmode="layer">
    <path
       id="path1888"
       d="m 310.66879,560.63992 -0.28079,-15.55603 -16.002,-0.27979 -16.002,-0.27981 v -31.9782 -31.9782 h -9.652 -9.652 v 30.89573 30.89574 l -6.858,1.1814 c -3.79448,0.65366 -13.21197,1.03527 -21.082,0.85427 l -14.224,-0.32714 v -47.752 -47.752 l 15.494,-0.28047 15.494,-0.28045 v -15.72155 -15.72153 h 16.22953 16.22955 l 0.28045,-15.494 0.28047,-15.494 14.478,-0.2819 14.478,-0.28189 v -14.19611 -14.1961 l -11.43,-0.006 c -6.2865,-0.003 -13.1445,-0.48181 -15.24,-1.06375 l -3.81,-1.05767 v -15.70023 -15.70025 l 17.526,0.10129 c 9.6393,0.0557 18.669,0.41833 20.066,0.80584 2.52805,0.70125 2.54239,0.77367 3.048,15.39273 l 0.508,14.68816 13.208,0.0373 c 7.2644,0.0205 14.4653,0.37215 16.002,0.78136 l 2.794,0.74402 v 14.71264 14.71265 h 42.13753 42.13755 l 0.28045,-15.494 0.28047,-15.494 15.748,-0.17673 15.748,-0.17673 0.28047,-15.31727 0.28045,-15.31727 h 16.29635 c 9.29052,0 17.14116,0.45215 18.26151,1.05174 1.8129,0.97023 1.96522,2.26959 1.96522,16.764 V 356.616 h -14.732 -14.732 v 14.224 14.224 h 11.049 c 6.07695,0 12.47775,0.28575 14.224,0.635 l 3.175,0.635 v 15.0872 15.0872 l 16.002,0.2798 16.002,0.2798 0.28048,15.494 0.28044,15.494 h 15.21356 15.21352 v 47.08091 47.08093 l -2.58778,1.17907 c -1.59526,0.72684 -8.41494,1.17909 -17.78,1.17909 H 532.384 l -0.127,-30.48 c -0.0699,-16.764 -0.18415,-31.0515 -0.254,-31.75 -0.0939,-0.93839 -3.31047,-1.27 -12.319,-1.27 h -12.192 l -0.26919,30.93743 c -0.20185,23.19743 -0.58314,31.13684 -1.524,31.73445 -0.69014,0.43835 -7.54131,0.80401 -15.22481,0.81257 l -13.97,0.0155 v 14.61351 c 0,14.29588 -0.0497,14.6268 -2.286,15.2261 -1.2573,0.33695 -17.04231,0.61889 -35.0778,0.62651 l -32.7918,0.014 0.2798,-16.00198 0.2798,-16.002 30.988,-0.508 30.988,-0.508 0.2819,-14.478 0.28189,-14.478 H 394.7439 320.04 v 14.732 14.732 h 30.988 30.988 v 15.6393 c 0,13.89411 -0.1984,15.73394 -1.778,16.4875 -0.9779,0.46652 -16.96784,1.00055 -35.53321,1.18674 l -33.7552,0.33851 z m 31.49637,-127.57003 -0.28116,-14.986 -10.922,-0.28837 -10.922,-0.28837 v 15.27437 15.27437 h 11.20316 11.20317 z m 126.21084,-0.254 v -14.224 h -11.684 -11.684 v 14.224 14.224 h 11.684 11.684 z m 641.858,141.05914 -2.794,-1.02047 V 556.2004 539.54622 l 16.51,-0.27916 16.51,-0.27917 0.278,-17.526 0.278,-17.526 h 16.74 16.74 v -15.748 -15.748 l -29.718,-0.0112 c -16.3449,-0.006 -31.4325,-0.29456 -33.528,-0.64093 l -3.81,-0.62975 v -33.28637 c 0,-29.41557 0.1868,-33.35809 1.6071,-33.90307 0.8839,-0.33919 8.4277,-0.6167 16.764,-0.6167 h 15.1569 l 0.127,-15.24 c 0.07,-8.382 0.1842,-15.76543 0.254,-16.40761 0.234,-2.1514 4.1023,-2.75312 18.161,-2.82498 l 13.97,-0.0714 v -16.14729 c 0,-14.38731 0.1938,-16.23706 1.778,-16.97086 0.9779,-0.45296 8.636,-1.07337 17.018,-1.3787 l 15.24,-0.55514 0.2788,-15.81022 0.2789,-15.81022 4.8097,-1.7296 c 4.2345,-1.52267 8.9414,-1.69754 39.3452,-1.46177 l 34.5354,0.26781 0.278,17.526 0.278,17.526 h 17.248 17.248 v 17.272 17.272 h 16.256 16.256 v 17.272 17.272 h 16.764 16.764 v 34.544 34.544 h -33.528 -33.528 v 15.65873 15.65874 l 16.002,0.34327 c 8.8011,0.18879 16.5735,0.71315 17.272,1.16523 0.9312,0.60266 1.27,5.27847 1.27,17.526 v 16.70403 l 12.954,0.0112 c 7.1247,0.006 14.6685,0.29457 16.764,0.64093 l 3.81,0.62975 v 17.13907 17.13906 h -17.222 c -9.4721,0 -19.5191,-0.49262 -22.3266,-1.09474 l -5.1046,-1.09474 -0.2794,-15.92326 -0.2794,-15.92328 h -11.5025 -11.5026 l -0.1814,16.764 -0.1815,16.76402 -17.272,0.29665 c -10.9892,0.18876 -18.8427,-0.13647 -21.59,-0.89405 l -4.318,-1.19068 v -15.61598 -15.61596 h -30.48 -30.48 v 16.764 16.76402 h -16.9001 c -9.8684,0 -18.5344,-0.48966 -20.828,-1.17684 l -3.9279,-1.17682 v -16.09518 -16.09518 h -13.208 -13.208 v 17.272 17.27201 l -17.526,-0.0802 c -9.6393,-0.0441 -18.7833,-0.5394 -20.32,-1.10064 z m 97.79,-51.65114 v -17.272 h -12.7 -12.7 v 17.272 17.272 h 12.7 12.7 z m 101.3706,0.254 -0.2786,-17.018 -11.43,-0.28727 -11.43,-0.28728 v 17.30528 17.30527 h 11.7086 11.7086 z m -33.2986,-34.798 v -16.256 h -29.464 -29.464 v 16.256 16.256 h 29.464 29.464 z m -68.072,-67.818 v -16.51 h -12.7 -12.7 v 16.08666 c 0,8.84768 0.1905,16.27718 0.4234,16.51 0.2327,0.23284 5.9477,0.42334 12.7,0.42334 h 12.2766 z m 101.3713,-0.21453 0.2793,-16.36039 -11.9633,0.28646 -11.9633,0.28646 -0.2823,15.19537 c -0.1554,8.35744 -0.1,15.67264 0.1243,16.256 0.2554,0.66605 4.7072,0.99289 11.9664,0.87856 l 11.5596,-0.18208 z M 669.544,559.01868 c 0,-9.56252 0.38859,-14.42499 1.2192,-15.25559 0.88641,-0.88639 8.50527,-1.2192 27.91053,-1.2192 h 26.69129 l 0.28351,-13.462 0.28347,-13.462 13.462,-0.28349 13.462,-0.28349 V 501.3664 487.67989 H 711.2 669.544 v -44.1681 -44.16811 l 14.478,-0.28189 14.478,-0.2819 0.28191,-14.478 0.28189,-14.478 h 41.12011 41.12009 v -15.24 -15.24 h 56.388 56.388 v 15.2286 15.22861 l 41.402,0.26539 41.402,0.2654 0.28191,14.478 0.28189,14.478 h 14.71491 14.71489 l -0.2648,43.942 -0.2648,43.942 -41.91,0.26527 -41.91,0.26528 v 13.67523 13.67524 l 13.462,0.28349 13.462,0.28349 0.2835,13.462 0.28348,13.462 h 26.69132 c 19.40523,0 27.0241,0.33281 27.9105,1.2192 0.8305,0.83047 1.2192,5.6896 1.2192,15.24 v 14.0208 h -28.7528 c -21.0086,0 -29.08117,-0.32837 -29.972,-1.2192 -0.82108,-0.8211 -1.2192,-5.46007 -1.2192,-14.20713 v -12.98793 l -26.67,-0.27087 -26.67,-0.27087 -0.508,-13.58733 -0.508,-13.58733 -12.7,10e-4 -12.7,7.9e-4 -0.28265,13.8404 -0.28269,13.84041 H 837.692 809.80934 l -0.28266,-13.78145 -0.28268,-13.78145 -12.92714,-0.18855 -12.92715,-0.18855 -0.28085,13.716 -0.28086,13.716 -27.14943,0.27054 -27.14945,0.27054 -0.28255,13.95346 -0.28257,13.95346 -29.21,0.26959 -29.21,0.26958 z M 863.6,500.88789 v -14.224 h -26.36099 -26.36105 l -0.30895,13.80406 c -0.16997,7.59223 -0.11851,13.99303 0.11432,14.224 0.23284,0.23097 12.23434,0.41994 26.67003,0.41994 H 863.6 Z m -54.07332,-57.658 -0.28268,-13.97 h -26.416 -26.416 l -0.28265,13.97 -0.28269,13.97 h 26.98134 26.98134 z m 109.728,0 -0.28268,-13.97 h -25.908 -25.908 l -0.28265,13.97 -0.28269,13.97 h 26.47334 26.47334 z"
       style="display:inline;fill:#000000;stroke-width:1.016" />
  </g>
  <g
     style="display:none"
     sodipodi:insensitive="true"
     inkscape:label="alien3"
     id="layer4"
     inkscape:groupmode="layer">
    <path
       id="path1888-3"
       d="m 310.66879,560.63992 -0.28079,-15.55603 -16.002,-0.27979 -16.002,-0.27981 v -31.9782 -31.9782 h -9.652 -9.652 v 30.89573 30.89574 l -6.858,1.1814 c -3.79448,0.65366 -13.21197,1.03527 -21.082,0.85427 l -14.224,-0.32714 v -47.752 -47.752 l 15.494,-0.28047 15.494,-0.28045 v -15.72155 -15.72153 h 16.22953 16.22955 l 0.28045,-15.494 0.28047,-15.494 14.478,-0.2819 14.478,-0.28189 v -14.19611 -14.1961 l -11.43,-0.006 c -6.2865,-0.003 -13.1445,-0.48181 -15.24,-1.06375 l -3.81,-1.05767 v -15.70023 -15.70025 l 17.526,0.10129 c 9.6393,0.0557 18.669,0.41833 20.066,0.80584 2.52805,0.70125 2.54239,0.77367 3.048,15.39273 l 0.508,14.68816 13.208,0.0373 c 7.2644,0.0205 14.4653,0.37215 16.002,0.78136 l 2.794,0.74402 v 14.71264 14.71265 h 42.13753 42.13755 l 0.28045,-15.494 0.28047,-15.494 15.748,-0.17673 15.748,-0.17673 0.28047,-15.31727 0.28045,-15.31727 h 16.29635 c 9.29052,0 17.14116,0.45215 18.26151,1.05174 1.8129,0.97023 1.96522,2.26959 1.96522,16.764 V 356.616 h -14.732 -14.732 v 14.224 14.224 h 11.049 c 6.07695,0 12.47775,0.28575 14.224,0.635 l 3.175,0.635 v 15.0872 15.0872 l 16.002,0.2798 16.002,0.2798 0.28048,15.494 0.28044,15.494 h 15.21356 15.21352 v 47.08091 47.08093 l -2.58778,1.17907 c -1.59526,0.72684 -8.41494,1.17909 -17.78,1.17909 H 532.384 l -0.127,-30.48 c -0.0699,-16.764 -0.18415,-31.0515 -0.254,-31.75 -0.0939,-0.93839 -3.31047,-1.27 -12.319,-1.27 h -12.192 l -0.26919,30.93743 c -0.20185,23.19743 -0.58314,31.13684 -1.524,31.73445 -0.69014,0.43835 -7.54131,0.80401 -15.22481,0.81257 l -13.97,0.0155 v 14.61351 c 0,14.29588 -0.0497,14.6268 -2.286,15.2261 -1.2573,0.33695 -17.04231,0.61889 -35.0778,0.62651 l -32.7918,0.014 0.2798,-16.00198 0.2798,-16.002 30.988,-0.508 30.988,-0.508 0.2819,-14.478 0.28189,-14.478 H 394.7439 320.04 v 14.732 14.732 h 30.988 30.988 v 15.6393 c 0,13.89411 -0.1984,15.73394 -1.778,16.4875 -0.9779,0.46652 -16.96784,1.00055 -35.53321,1.18674 l -33.7552,0.33851 z m 31.49637,-127.57003 -0.28116,-14.986 -10.922,-0.28837 -10.922,-0.28837 v 15.27437 15.27437 h 11.20316 11.20317 z m 126.21084,-0.254 v -14.224 h -11.684 -11.684 v 14.224 14.224 h 11.684 11.684 z m 641.858,141.05914 -2.794,-1.02047 V 556.2004 539.54622 l 16.51,-0.27916 16.51,-0.27917 0.278,-17.526 0.278,-17.526 h 16.74 16.74 v -15.748 -15.748 l -29.718,-0.0112 c -16.3449,-0.006 -31.4325,-0.29456 -33.528,-0.64093 l -3.81,-0.62975 v -33.28637 c 0,-29.41557 0.1868,-33.35809 1.6071,-33.90307 0.8839,-0.33919 8.4277,-0.6167 16.764,-0.6167 h 15.1569 l 0.127,-15.24 c 0.07,-8.382 0.1842,-15.76543 0.254,-16.40761 0.234,-2.1514 4.1023,-2.75312 18.161,-2.82498 l 13.97,-0.0714 v -16.14729 c 0,-14.38731 0.1938,-16.23706 1.778,-16.97086 0.9779,-0.45296 8.636,-1.07337 17.018,-1.3787 l 15.24,-0.55514 0.2788,-15.81022 0.2789,-15.81022 4.8097,-1.7296 c 4.2345,-1.52267 8.9414,-1.69754 39.3452,-1.46177 l 34.5354,0.26781 0.278,17.526 0.278,17.526 h 17.248 17.248 v 17.272 17.272 h 16.256 16.256 v 17.272 17.272 h 16.764 16.764 v 34.544 34.544 h -33.528 -33.528 v 15.65873 15.65874 l 16.002,0.34327 c 8.8011,0.18879 16.5735,0.71315 17.272,1.16523 0.9312,0.60266 1.27,5.27847 1.27,17.526 v 16.70403 l 12.954,0.0112 c 7.1247,0.006 14.6685,0.29457 16.764,0.64093 l 3.81,0.62975 v 17.13907 17.13906 h -17.222 c -9.4721,0 -19.5191,-0.49262 -22.3266,-1.09474 l -5.1046,-1.09474 -0.2794,-15.92326 -0.2794,-15.92328 h -11.5025 -11.5026 l -0.1814,16.764 -0.1815,16.76402 -17.272,0.29665 c -10.9892,0.18876 -18.8427,-0.13647 -21.59,-0.89405 l -4.318,-1.19068 v -15.61598 -15.61596 h -30.48 -30.48 v 16.764 16.76402 h -16.9001 c -9.8684,0 -18.5344,-0.48966 -20.828,-1.17684 l -3.9279,-1.17682 v -16.09518 -16.09518 h -13.208 -13.208 v 17.272 17.27201 l -17.526,-0.0802 c -9.6393,-0.0441 -18.7833,-0.5394 -20.32,-1.10064 z m 97.79,-51.65114 v -17.272 h -12.7 -12.7 v 17.272 17.272 h 12.7 12.7 z m 101.3706,0.254 -0.2786,-17.018 -11.43,-0.28727 -11.43,-0.28728 v 17.30528 17.30527 h 11.7086 11.7086 z m -33.2986,-34.798 v -16.256 h -29.464 -29.464 v 16.256 16.256 h 29.464 29.464 z m -68.072,-67.818 v -16.51 h -12.7 -12.7 v 16.08666 c 0,8.84768 0.1905,16.27718 0.4234,16.51 0.2327,0.23284 5.9477,0.42334 12.7,0.42334 h 12.2766 z m 101.3713,-0.21453 0.2793,-16.36039 -11.9633,0.28646 -11.9633,0.28646 -0.2823,15.19537 c -0.1554,8.35744 -0.1,15.67264 0.1243,16.256 0.2554,0.66605 4.7072,0.99289 11.9664,0.87856 l 11.5596,-0.18208 z M 669.544,559.01868 c 0,-9.56252 0.38859,-14.42499 1.2192,-15.25559 0.88641,-0.88639 8.50527,-1.2192 27.91053,-1.2192 h 26.69129 l 0.28351,-13.462 0.28347,-13.462 13.462,-0.28349 13.462,-0.28349 V 501.3664 487.67989 H 711.2 669.544 v -44.1681 -44.16811 l 14.478,-0.28189 14.478,-0.2819 0.28191,-14.478 0.28189,-14.478 h 41.12011 41.12009 v -15.24 -15.24 h 56.388 56.388 v 15.2286 15.22861 l 41.402,0.26539 41.402,0.2654 0.28191,14.478 0.28189,14.478 h 14.71491 14.71489 l -0.2648,43.942 -0.2648,43.942 -41.91,0.26527 -41.91,0.26528 v 13.67523 13.67524 l 13.462,0.28349 13.462,0.28349 0.2835,13.462 0.28348,13.462 h 26.69132 c 19.40523,0 27.0241,0.33281 27.9105,1.2192 0.8305,0.83047 1.2192,5.6896 1.2192,15.24 v 14.0208 h -28.7528 c -21.0086,0 -29.08117,-0.32837 -29.972,-1.2192 -0.82108,-0.8211 -1.2192,-5.46007 -1.2192,-14.20713 v -12.98793 l -26.67,-0.27087 -26.67,-0.27087 -0.508,-13.58733 -0.508,-13.58733 -12.7,10e-4 -12.7,7.9e-4 -0.28265,13.8404 -0.28269,13.84041 H 837.692 809.80934 l -0.28266,-13.78145 -0.28268,-13.78145 -12.92714,-0.18855 -12.92715,-0.18855 -0.28085,13.716 -0.28086,13.716 -27.14943,0.27054 -27.14945,0.27054 -0.28255,13.95346 -0.28257,13.95346 -29.21,0.26959 -29.21,0.26958 z M 863.6,500.88789 v -14.224 h -26.36099 -26.36105 l -0.30895,13.80406 c -0.16997,7.59223 -0.11851,13.99303 0.11432,14.224 0.23284,0.23097 12.23434,0.41994 26.67003,0.41994 H 863.6 Z m -54.07332,-57.658 -0.28268,-13.97 h -26.416 -26.416 l -0.28265,13.97 -0.28269,13.97 h 26.98134 26.98134 z m 109.728,0 -0.28268,-13.97 h -25.908 -25.908 l -0.28265,13.97 -0.28269,13.97 h 26.47334 26.47334 z"
       style="display:inline;fill:#000000;stroke-width:1.016" />
  </g>
</svg>
